<?xml version="1.0" encoding="UTF-8" standalone="no"?><!DOCTYPE svg PUBLIC "-//W3C//DTD SVG 1.1//EN" "http://www.w3.org/Graphics/SVG/1.1/DTD/svg11.dtd"><svg width="100%" height="100%" viewBox="0 0 327 327" version="1.1" xmlns="http://www.w3.org/2000/svg" xmlns:xlink="http://www.w3.org/1999/xlink" xml:space="preserve" xmlns:serif="http://www.serif.com/" style="fill-rule:evenodd;clip-rule:evenodd;stroke-linejoin:round;stroke-miterlimit:2;"><path d="M14.257,275.602c-31.309,-55.211 -10.004,-141.804 54.766,-206.592c73.553,-73.543 175.256,-91.076 227.182,-39.16c0.061,0.068 0.112,0.145 0.195,0.214c-10.392,30.235 -43.486,94.567 -142.686,129.348c-90.872,31.878 -125.926,82.56 -139.457,116.19Zm296.553,-226.852c-7.871,18.361 -21.57,42.356 -45.173,65.957c-23.725,23.735 -57.445,47.046 -105.208,63.8c-96.939,33.993 -124.024,89.642 -131.581,116.609c0.357,0.36 0.664,0.733 1.011,1.083c51.921,51.918 153.628,34.386 227.176,-39.169c65.444,-65.445 86.491,-153.161 53.775,-208.28Z" style="fill:#1b0000;fill-rule:nonzero;"/></svg>