<?xml version="1.0" encoding="iso-8859-1"?>
<!-- Generator: Adobe Illustrator 19.0.0, SVG Export Plug-In . SVG Version: 6.00 Build 0)  -->
<svg version="1.1" id="Capa_1" xmlns="http://www.w3.org/2000/svg" xmlns:xlink="http://www.w3.org/1999/xlink" x="0px" y="0px"
	 viewBox="0 0 391 391" style="enable-background:new 0 0 391 391;" xml:space="preserve">
<g>
	<g>
		<g>
			<path d="M252.231,112.974c-13.595-30.614-17.039-63.806-17.753-72.835l3.837-3.347c0.084-0.074,0.166-0.15,0.246-0.228
				c0.004-0.004,0.008-0.008,0.012-0.012c0,0,0.001,0,0.001-0.001c0.003-0.003,0.007-0.007,0.01-0.01
				c0-0.001,0.001-0.001,0.001-0.002c0.003-0.003,0.008-0.008,0.011-0.011v-0.001c0.007-0.007,0.015-0.014,0.023-0.022
				c0.001-0.001,0.002-0.003,0.003-0.004c0.003-0.003,0.005-0.005,0.008-0.008c0.001-0.001,0.003-0.003,0.004-0.004
				c0.002-0.003,0.004-0.005,0.007-0.008c0.001-0.001,0.002-0.003,0.003-0.004c0.003-0.003,0.006-0.005,0.008-0.008
				c0.001-0.001,0.002-0.003,0.003-0.004c0.003-0.003,0.006-0.006,0.009-0.009c0.001-0.001,0.002-0.001,0.002-0.002
				c0.85-0.891,1.375-2.094,1.384-3.419c0-0.005,0-0.01,0-0.015c0-0.001,0-0.002,0-0.003c0-0.006,0-0.011,0-0.017V5
				c0-2.762-2.239-5-5-5h-79.098c-2.761,0-5,2.238-5,5v27.997c0,0.006,0,0.011,0,0.017c0,0.001,0,0.002,0,0.003
				c0,0.005,0,0.01,0,0.015c0.009,1.325,0.534,2.528,1.384,3.419c0.001,0.001,0.002,0.001,0.002,0.002
				c0.003,0.003,0.006,0.006,0.009,0.009c0.001,0.001,0.002,0.003,0.003,0.004c0.003,0.003,0.005,0.005,0.008,0.008
				c0.001,0.001,0.002,0.003,0.003,0.004c0.003,0.003,0.005,0.005,0.007,0.008c0.002,0.001,0.003,0.003,0.004,0.004
				c0.003,0.003,0.005,0.005,0.008,0.008c0.001,0.001,0.002,0.003,0.003,0.004c0.008,0.007,0.016,0.014,0.023,0.022v0.001
				c0.003,0.003,0.008,0.008,0.011,0.011c0,0.001,0.001,0.001,0.001,0.002c0.003,0.003,0.007,0.007,0.01,0.01
				c0.001,0.001,0.001,0.001,0.001,0.001c0.004,0.004,0.008,0.008,0.012,0.012c0.079,0.079,0.162,0.155,0.246,0.228l3.837,3.347
				c-0.714,9.029-4.157,42.221-17.753,72.835C122.336,149.98,120,164.354,120,198v172c0,11.579,9.42,21,21,21h109
				c11.58,0,21-9.421,21-21V198C271,164.354,268.664,149.98,252.231,112.974z M160.951,10h69.098v18h-69.098V10z M166.677,38.238
				c0.004-0.079,0.006-0.159,0.006-0.238h57.634c0,0.079,0.002,0.159,0.006,0.238c0.052,1.093,0.953,18.432,6.212,40.762h-70.07
				C165.724,56.67,166.625,39.331,166.677,38.238z M261,370c0,6.065-4.935,11-11,11H141c-6.065,0-11-4.935-11-11V198
				c0-32.468,2.108-45.385,17.911-80.97c4.198-9.455,7.468-19.051,10.011-28.146C158.27,88.96,158.63,89,159,89h74.11
				c2.539,9.059,5.799,18.616,9.979,28.029C258.892,152.615,261,165.532,261,198V370z"/>
			<path d="M148,218c-2.761,0-5,2.238-5,5v132c0,2.762,2.239,5,5,5s5-2.238,5-5V223C153,220.238,150.761,218,148,218z"/>
		</g>
	</g>
</g>
<g>
</g>
<g>
</g>
<g>
</g>
<g>
</g>
<g>
</g>
<g>
</g>
<g>
</g>
<g>
</g>
<g>
</g>
<g>
</g>
<g>
</g>
<g>
</g>
<g>
</g>
<g>
</g>
<g>
</g>
</svg>
