<svg width="200" height="200" viewBox="0 0 200 200" fill="none" xmlns="http://www.w3.org/2000/svg">
<circle cx="100" cy="100" r="94.5" fill="white" stroke="white"/>
<path d="M57.488 58.424C56.048 54.68 54.896 51.704 54.896 50.456C54.896 49.784 55.088 49.016 56.144 48.536C57.008 48.152 58.736 48.056 59.792 48.056C60.464 48.056 60.752 47.864 60.752 47.384C60.752 46.904 59.888 46.712 58.16 46.712C54.512 46.712 50.192 47 49.232 47C48.08 47 42.608 46.712 38 46.712C36.464 46.712 35.504 46.808 35.504 47.384C35.504 47.768 35.696 48.056 36.272 48.056C36.848 48.056 38.48 48.056 39.92 48.44C43.28 49.4 44.72 50.456 46.832 55.832L70.352 114.68C72.176 119.288 72.656 120.632 73.808 120.632C74.768 120.632 75.152 119.096 77.84 113.336C80.048 108.632 84.368 98.264 90.224 84.248C95.12 72.44 99.92 60.92 100.976 58.232C103.568 51.704 105.008 50.072 106.256 49.208C108.08 48.056 110.192 48.056 110.864 48.056C111.632 48.056 112.016 47.864 112.016 47.384C112.016 46.904 111.44 46.712 110.384 46.712C107.6 46.712 103.472 47 102.896 47C101.744 47 97.328 46.712 93.488 46.712C91.952 46.712 91.376 46.904 91.376 47.48C91.376 47.96 91.856 48.056 92.432 48.056C93.488 48.056 94.928 48.056 96.08 48.44C97.04 48.92 97.328 49.88 97.328 50.648C97.328 51.512 96.944 52.856 96.464 54.296C94.352 61.208 81.488 94.712 75.92 107.576L57.488 58.424Z" fill="#6C1616"/>
<path d="M147.688 155.128C147.688 156.76 147.016 157.816 145.768 158.488C143.272 159.928 138.28 160.504 134.824 160.504C125.992 160.504 117.256 157.624 109.672 150.232C106.312 146.968 99.496 137.176 99.496 123.64C99.496 112.408 103.432 103.672 109 99.256C116.296 93.496 123.496 92.92 129.544 92.92C141.928 92.92 149.704 97.048 152.104 100.696C153.544 103 154.024 105.688 154.12 107.032C154.216 107.896 154.312 108.472 154.792 108.472C155.464 108.472 155.656 107.992 155.656 106.456C155.656 96.856 156.328 94.168 156.328 92.824C156.328 92.44 156.136 92.056 155.176 91.96C152.776 91.864 149.416 91.48 147.4 91C145.576 90.616 138.76 89.368 132.712 89.368C125.32 89.368 115.816 90.04 107.176 95.416C98.632 100.792 91.144 111.64 91.144 127C91.144 139 96.712 149.272 102.568 154.36C113.224 163.672 126.856 164.632 134.152 164.632C139.72 164.632 148.36 163.576 154.504 160.312C155.656 159.64 155.752 159.448 155.752 155.128V144.376C155.752 140.344 155.752 137.464 155.944 134.392C156.136 131.032 156.904 129.4 159.496 128.92C160.648 128.728 161.224 128.632 161.896 128.632C162.28 128.632 162.664 128.44 162.664 128.056C162.664 127.48 162.184 127.288 161.128 127.288C158.248 127.288 152.2 127.576 151.72 127.576C151.24 127.576 145.192 127.288 140.872 127.288C139.816 127.288 139.336 127.48 139.336 128.056C139.336 128.44 139.72 128.632 140.104 128.632C140.968 128.632 142.6 128.728 143.368 128.92C147.208 129.976 147.688 131.032 147.688 138.808V155.128Z" fill="#6C1616"/>
</svg>
