<?xml version="1.0" encoding="UTF-8" standalone="no"?><!DOCTYPE svg PUBLIC "-//W3C//DTD SVG 1.1//EN" "http://www.w3.org/Graphics/SVG/1.1/DTD/svg11.dtd"><svg width="100%" height="100%" viewBox="0 0 391 391" version="1.1" xmlns="http://www.w3.org/2000/svg" xmlns:xlink="http://www.w3.org/1999/xlink" xml:space="preserve" xmlns:serif="http://www.serif.com/" style="fill-rule:evenodd;clip-rule:evenodd;stroke-linejoin:round;stroke-miterlimit:2;"><g><path d="M252.231,112.974c-13.595,-30.614 -17.039,-63.806 -17.753,-72.835l3.837,-3.347c0.084,-0.074 0.166,-0.15 0.246,-0.228c0.004,-0.004 0.008,-0.008 0.012,-0.012c0,0 0.001,0 0.001,-0.001c0.003,-0.003 0.007,-0.007 0.01,-0.01c0,-0.001 0.001,-0.001 0.001,-0.002c0.003,-0.003 0.008,-0.008 0.011,-0.011l0,-0.001c0.007,-0.007 0.015,-0.014 0.023,-0.022c0.001,-0.001 0.002,-0.003 0.003,-0.004l0.012,-0.012c0.002,-0.003 0.004,-0.005 0.007,-0.008c0.001,-0.001 0.002,-0.003 0.003,-0.004c0.003,-0.003 0.006,-0.005 0.008,-0.008c0.001,-0.001 0.002,-0.003 0.003,-0.004c0.003,-0.003 0.006,-0.006 0.009,-0.009c0.001,-0.001 0.002,-0.001 0.002,-0.002c0.85,-0.891 1.375,-2.094 1.384,-3.419l0,-0.035l0,-28c0,-2.762 -2.239,-5 -5,-5l-79.098,0c-2.761,0 -5,2.238 -5,5l0,28.032c0.009,1.325 0.534,2.528 1.384,3.419l0.011,0.011c0.001,0.001 0.002,0.003 0.003,0.004c0.003,0.003 0.005,0.005 0.008,0.008c0.001,0.001 0.002,0.003 0.003,0.004c0.003,0.003 0.005,0.005 0.007,0.008c0.002,0.001 0.003,0.003 0.004,0.004c0.003,0.003 0.005,0.005 0.008,0.008c0.001,0.001 0.002,0.003 0.003,0.004c0.008,0.007 0.016,0.014 0.023,0.022l0,0.001c0.003,0.003 0.008,0.008 0.011,0.011c0,0.001 0.001,0.001 0.001,0.002l0.023,0.023c0.079,0.079 0.162,0.155 0.246,0.228l3.837,3.347c-0.714,9.029 -4.157,42.221 -17.753,72.835c-16.435,37.009 -18.771,51.383 -18.771,85.029l0,172c0,11.579 9.42,21 21,21l109,0c11.58,0 21,-9.421 21,-21l0,-172c0,-33.646 -2.336,-48.02 -18.769,-85.026Zm-91.28,-102.974l69.098,0l0,18l-69.098,0l0,-18Zm5.726,28.238c0.004,-0.079 0.006,-0.159 0.006,-0.238l57.634,0c0,0.079 0.002,0.159 0.006,0.238c0.052,1.093 0.953,18.432 6.212,40.762l-70.07,0c5.259,-22.33 6.16,-39.669 6.212,-40.762Zm94.323,331.762c0,6.065 -4.935,11 -11,11l-109,0c-6.065,0 -11,-4.935 -11,-11l0,-172c0,-32.468 2.108,-45.385 17.911,-80.97c4.198,-9.455 7.468,-19.051 10.011,-28.146c0.348,0.076 0.708,0.116 1.078,0.116l74.11,0c2.539,9.059 5.799,18.616 9.979,28.029c15.803,35.586 17.911,48.503 17.911,80.971l0,172Z" style="fill:#fff;fill-rule:nonzero;"/><path d="M148,218c-2.761,0 -5,2.238 -5,5l0,132c0,2.762 2.239,5 5,5c2.761,0 5,-2.238 5,-5l0,-132c0,-2.762 -2.239,-5 -5,-5Z" style="fill:#fff;fill-rule:nonzero;"/></g></svg>